<?xml version="1.0" encoding="UTF-8"?>
<svg width="512" height="512" viewBox="0 0 24 24" xmlns="http://www.w3.org/2000/svg">
  <linearGradient id="gradient" x1="0%" y1="0%" x2="100%" y2="100%">
    <stop offset="0%" stop-color="#0ea5e9" />
    <stop offset="100%" stop-color="#d946ef" />
  </linearGradient>
  <path fill="url(#gradient)" d="M19.8 6.967s-1.85.55-2.01 1.052V18.01c0 .512-.512 1.096-1.53 1.359-1.02.263-1.956-.14-2.087-.877-.132-.737.584-1.551 1.604-1.814.766-.197 1.458-.07 1.755.268l.005-10.54c.026-.264.206-.388.412-.46L19.8 5.032v1.935zM17 2a1 1 0 100 2 1 1 0 000-2zm-6.154 12.079c-.193.273-.525.459-.896.459-.602 0-1.088-.488-1.088-1.09 0-.603.486-1.091 1.088-1.091.371 0 .704.185.896.459.193-.274.525-.459.896-.459.602 0 1.088.488 1.088 1.091 0 .602-.486 1.09-1.088 1.09-.371 0-.703-.185-.896-.459zm-3.101 2.645c1.69.452 2.295 1.27 2.295 2.276h-1.688c0-.27-.258-.725-1.687-.964-.237-.04-.446-.217-.554-.44l-.142-.297c.391.248.853.397 1.35.397 1.404 0 2.543-1.139 2.543-2.543 0-1.404-1.14-2.543-2.543-2.543-1.404 0-2.543 1.14-2.543 2.543 0 .752.327 1.427.845 1.897l-.142-.297c-.108-.224-.106-.487.022-.726.218-.406.344-.853.344-1.329 0-1.09-.62-2.035-1.523-2.513-.158-.083-.32-.154-.488-.213V9.69l3.5-1.193v3.75a2.3 2.3 0 00-.411-.038c-.19 0-.373.024-.548.069V9.94l-2.541.866v5.68c-.238.212-.379.521-.379.847 0 .603.486 1.091 1.088 1.091.462 0 .853-.289.979-.642.172.53.658.928 1.243 1.044zm-4.256 0c-.237-.04-.446-.217-.554-.44l-.142-.297a2.54 2.54 0 001.35.397c1.404 0 2.543-1.139 2.543-2.543a2.54 2.54 0 00-2.543-2.543 2.54 2.54 0 00-2.543 2.543c0 .752.327 1.427.845 1.897l-.142-.297c-.108-.224-.106-.487.022-.726.218-.406.344-.853.344-1.329 0-1.553-1.2-2.828-2.726-2.948v6.527c0 .747.604 1.352 1.351 1.352.608 0 1.122-.402 1.293-.956a1.09 1.09 0 00.902 1.016c1.69.452 2.295 1.27 2.295 2.276H5.401c0-.27-.258-.725-1.687-.964-.237-.04-.446-.217-.554-.44l-.142-.297c.391.248.853.397 1.35.397 1.404 0 2.543-1.139 2.543-2.543 0-1.404-1.14-2.543-2.543-2.543-1.404 0-2.543 1.14-2.543 2.543 0 .752.327 1.427.845 1.897l-.142-.297c-.108-.224-.106-.487.022-.726.218-.406.344-.853.344-1.329 0-1.553-1.2-2.828-2.726-2.948v-7.67l6.5-2.217v3.05a2.3 2.3 0 00-.411-.038c-.19 0-.373.024-.548.069V5.69L2.92 6.556v5.68c-.238.212-.379.521-.379.847 0 .603.486 1.091 1.088 1.091.462 0 .853-.289.979-.642.172.53.658.928 1.243 1.044 1.69.452 2.295 1.27 2.295 2.276H6.46c0-.27-.258-.725-1.687-.964z"/>
</svg> 